<svg xmlns="http://www.w3.org/2000/svg" version="1.1" xmlns:xlink="http://www.w3.org/1999/xlink" xmlns:svgjs="http://svgjs.dev/svgjs" width="1440" height="250" preserveAspectRatio="none" viewBox="0 0 1440 250"><g mask="url(&quot;#SvgjsMask1000&quot;)" fill="none"><rect width="1440" height="250" x="0" y="0" fill="#0e2a47"></rect><path d="M37 250L287 0L396.5 0L146.5 250z" fill="url(&quot;#SvgjsLinearGradient1001&quot;)"></path><path d="M279.6 250L529.6 0L679.6 0L429.6 250z" fill="url(&quot;#SvgjsLinearGradient1001&quot;)"></path><path d="M521.2 250L771.2 0L1045.7 0L795.7 250z" fill="url(&quot;#SvgjsLinearGradient1001&quot;)"></path><path d="M730.8000000000001 250L980.8000000000001 0L1090.3000000000002 0L840.3000000000001 250z" fill="url(&quot;#SvgjsLinearGradient1001&quot;)"></path><path d="M1435 250L1185 0L1041 0L1291 250z" fill="url(&quot;#SvgjsLinearGradient1002&quot;)"></path><path d="M1166.4 250L916.4000000000001 0L734.9000000000001 0L984.9000000000001 250z" fill="url(&quot;#SvgjsLinearGradient1002&quot;)"></path><path d="M934.8 250L684.8 0L479.29999999999995 0L729.3 250z" fill="url(&quot;#SvgjsLinearGradient1002&quot;)"></path><path d="M702.1999999999999 250L452.19999999999993 0L156.69999999999993 0L406.69999999999993 250z" fill="url(&quot;#SvgjsLinearGradient1002&quot;)"></path><path d="M1279.0049783381528 250L1440 89.00497833815282L1440 250z" fill="url(&quot;#SvgjsLinearGradient1001&quot;)"></path><path d="M0 250L160.99502166184718 250L 0 89.00497833815282z" fill="url(&quot;#SvgjsLinearGradient1002&quot;)"></path></g><defs><mask id="SvgjsMask1000"><rect width="1440" height="250" fill="#ffffff"></rect></mask><linearGradient x1="0%" y1="100%" x2="100%" y2="0%" id="SvgjsLinearGradient1001"><stop stop-color="rgba(15, 70, 185, 0.2)" offset="0"></stop><stop stop-opacity="0" stop-color="rgba(15, 70, 185, 0.2)" offset="0.66"></stop></linearGradient><linearGradient x1="100%" y1="100%" x2="0%" y2="0%" id="SvgjsLinearGradient1002"><stop stop-color="rgba(15, 70, 185, 0.2)" offset="0"></stop><stop stop-opacity="0" stop-color="rgba(15, 70, 185, 0.2)" offset="0.66"></stop></linearGradient></defs></svg>